HIERARCHY
ROOT Hips
{
	OFFSET 0.00 0.00 0.00
	CHANNELS 6 Xposition Yposition Zposition Xrotation Yrotation Zrotation
	JOINT Spine
	{
		OFFSET 0.00000 6.11665 0.00000
		CHANNELS 3 Xrotation Yrotation Zrotation
		JOINT Head
		{
			OFFSET 0.00000 15.22556 0.00000
			CHANNELS 3 Xrotation Yrotation Zrotation
			End Site
			{
				OFFSET 0.00000 4.52755 0.00000
			}
		}
		JOINT LeftShoulder
		{
			OFFSET 0.00000 8.97765 0.00000
			CHANNELS 3 Xrotation Yrotation Zrotation
			JOINT LeftArm
			{
				OFFSET 7.11013 0.00000 0.00000
				CHANNELS 3 Xrotation Yrotation Zrotation
				JOINT LeftForeArm
				{
					OFFSET 10.39834 0.00000 0.00000
					CHANNELS 3 Yrotation Zrotation Xrotation
					JOINT LeftHand
					{
						OFFSET 8.88900 0.00000 0.00000
						CHANNELS 3 Xrotation Yrotation Zrotation
						JOINT LeftHandThumb1
						{
							OFFSET 0.00000 0.00000 0.00000
							CHANNELS 3 Xrotation Zrotation Yrotation
							End Site
							{
								OFFSET 0.00000 0.00000 3.93700
							}
						}
						End Site
						{
							OFFSET 3.93700 0.00000 0.00000
						}
					}
				}
			}
		}
		JOINT RightShoulder
		{
			OFFSET 0.00000 8.97765 0.00000
			CHANNELS 3 Xrotation Yrotation Zrotation
			JOINT RightArm
			{
				OFFSET -7.11013 0.00000 0.00000
				CHANNELS 3 Xrotation Yrotation Zrotation
				JOINT RightForeArm
				{
					OFFSET -10.39834 0.00000 0.00000
					CHANNELS 3 Yrotation Zrotation Xrotation
					JOINT RightHand
					{
						OFFSET -8.88900 0.00000 0.00000
						CHANNELS 3 Xrotation Yrotation Zrotation
						JOINT RightHandThumb1
						{
							OFFSET 0.00000 0.00000 0.00000
							CHANNELS 3 Xrotation Zrotation Yrotation
							End Site
							{
								OFFSET 0.00000 0.00000 3.93700
							}
						}
						End Site
						{
							OFFSET -3.93700 0.00000 0.00000
						}
					}
				}
			}
		}
	}
	JOINT LeftUpLeg
	{
		OFFSET 4.71176 0.00000 0.00000
		CHANNELS 3 Xrotation Yrotation Zrotation
		JOINT LeftLeg
		{
			OFFSET 0.00000 -15.51045 0.00000
			CHANNELS 3 Xrotation Yrotation Zrotation
			JOINT LeftFoot
			{
				OFFSET 0.00000 -14.85806 0.00000
				CHANNELS 3 Xrotation Yrotation Zrotation
				JOINT LeftToeBase
				{
					OFFSET 0.00000 -1.32744 4.95409
					CHANNELS 3 Xrotation Yrotation Zrotation
					End Site
					{
						OFFSET 0.00000 0.00000 2.95275
					}
				}
			}
		}
	}
	JOINT RightUpLeg
	{
		OFFSET -4.71176 0.00000 0.00000
		CHANNELS 3 Xrotation Yrotation Zrotation
		JOINT RightLeg
		{
			OFFSET 0.00000 -15.51045 0.00000
			CHANNELS 3 Xrotation Yrotation Zrotation
			JOINT RightFoot
			{
				OFFSET 0.00000 -14.85806 0.00000
				CHANNELS 3 Xrotation Yrotation Zrotation
				JOINT RightToeBase
				{
					OFFSET 0.00000 -1.32744 4.95409
					CHANNELS 3 Xrotation Yrotation Zrotation
					End Site
					{
						OFFSET 0.00000 0.00000 2.95275
					}
				}
			}
		}
	}
}
MOTION
Frames:	21
Frame Time: 0.008333
-4.1675 32.4005 0.0513 -2.6810 -1.7426 -0.7707 2.9796 -4.7889 0.7024 -1.3232 8.5126 -2.5931 0.1635 23.8613 43.3761 -26.2910 1.9593 -40.3593 -6.7535 0.0000 20.1145 -1.5993 -14.2173 -6.4856 32.8623 0.0000 24.3270 -14.8471 -4.5493 -42.4367 -20.7506 2.1240 41.2251 -9.7637 0.0000 15.0266 -0.5985 7.3487 4.6691 33.1476 -0.0000 -26.2537 6.5154 -0.4834 -2.9318 1.3398 -0.0000 -0.0000 -9.5017 18.7644 -6.1450 11.6123 -0.0000 -0.0000 7.1374 4.4398 1.1134 3.0200 -0.0000 -0.0000 -11.8177 -22.2076 12.8732 17.0905 -0.0000 -0.0000
-4.1690 32.3999 0.0557 -2.6760 -1.7386 -0.7692 2.9706 -4.7910 0.6946 -1.3124 8.5039 -2.5874 0.1479 23.8436 43.3855 -26.2403 1.9432 -40.3651 -6.7484 0.0000 20.0765 -1.6063 -14.2117 -6.5162 32.8623 0.0000 24.3270 -14.8451 -4.5508 -42.4367 -20.7637 2.0859 41.2279 -9.7397 0.0000 15.0701 -0.5917 7.3096 4.6405 33.1476 -0.0000 -26.2537 6.5163 -0.4960 -2.9318 1.3442 -0.0000 -0.0000 -9.5045 18.7686 -6.1146 11.5586 -0.0000 -0.0000 7.1403 4.4349 1.1145 3.0224 -0.0000 -0.0000 -11.8311 -22.2075 12.8796 17.0595 -0.0000 -0.0000
-4.1694 32.3996 0.0596 -2.6743 -1.7370 -0.7639 2.9656 -4.7835 0.6910 -1.2968 8.4881 -2.6015 0.1775 23.8528 43.3629 -26.2457 1.9211 -40.3631 -6.7416 -0.0000 20.0521 -1.6161 -14.1944 -6.5635 32.8623 0.0000 24.3270 -14.8622 -4.5328 -42.4288 -20.7238 2.0763 41.2075 -9.6951 0.0000 15.0757 -0.5821 7.0508 4.7312 33.1476 -0.0000 -26.2537 6.5212 -0.4947 -2.9358 1.3443 -0.0000 -0.0000 -9.5135 18.7608 -6.1394 11.6101 -0.0000 -0.0000 7.1425 4.4291 1.1140 3.0364 -0.0000 -0.0000 -11.8178 -22.1413 12.7636 16.8159 -0.0000 -0.0000
-4.1708 32.3993 0.0638 -2.6738 -1.7280 -0.7605 2.9634 -4.7984 0.6828 -1.2851 8.4878 -2.6026 0.1358 23.8220 43.3740 -26.1735 1.8968 -40.3605 -6.7135 0.0000 20.0491 -1.6170 -14.1974 -6.5659 32.8623 0.0000 24.3270 -14.8504 -4.5530 -42.4547 -20.8676 1.8924 41.2300 -9.5959 -0.0000 15.2572 -0.5923 7.2172 4.7042 33.1476 -0.0000 -26.2537 6.5235 -0.4850 -2.9348 1.3547 -0.0000 -0.0000 -9.5074 18.7380 -6.1301 11.4942 -0.0000 -0.0000 7.1523 4.4013 1.1106 3.0315 -0.0000 -0.0000 -11.8542 -22.1770 12.8752 17.0859 -0.0000 -0.0000
-4.1723 32.3988 0.0676 -2.6704 -1.7267 -0.7601 2.9609 -4.7978 0.6823 -1.2821 8.4855 -2.6132 0.1365 23.8346 43.3638 -26.1843 1.8854 -40.3636 -6.6879 -0.0000 20.0880 -1.6595 -14.3121 -6.6844 32.8623 0.0000 24.3270 -14.8439 -4.5700 -42.4565 -20.8674 1.8918 41.2323 -9.5512 0.0000 15.2916 -0.5827 6.9935 4.7748 33.1476 -0.0000 -26.2537 6.5277 -0.4879 -2.9334 1.3514 -0.0000 -0.0000 -9.5292 18.7555 -6.1471 11.6762 -0.0000 -0.0000 7.1582 4.4138 1.1142 3.0275 -0.0000 -0.0000 -11.8652 -22.1995 12.8815 17.0821 -0.0000 -0.0000
-4.1722 32.3984 0.0715 -2.6684 -1.7209 -0.7560 2.9587 -4.8079 0.6813 -1.2746 8.4834 -2.6280 0.1669 23.8615 43.3497 -26.2321 1.9105 -40.3770 -6.6789 0.0000 20.1207 -1.6629 -14.3566 -6.6781 32.8623 0.0000 24.3270 -14.8167 -4.6007 -42.4576 -20.9216 1.8978 41.2347 -9.5621 0.0000 15.3015 -0.5779 6.9790 4.7454 33.1476 -0.0000 -26.2537 6.5300 -0.5057 -2.9371 1.3548 -0.0000 -0.0000 -9.5283 18.7613 -6.1321 11.5484 -0.0000 -0.0000 7.1632 4.4024 1.1103 3.0290 -0.0000 -0.0000 -11.8715 -22.1876 12.8509 17.0588 -0.0000 -0.0000
-4.1739 32.3982 0.0753 -2.6708 -1.7246 -0.7564 2.9625 -4.8055 0.6755 -1.2690 8.4892 -2.6230 0.1473 23.8432 43.3476 -26.1901 1.8977 -40.3704 -6.6924 0.0000 20.0336 -1.6232 -14.2333 -6.5744 32.8623 0.0000 24.3270 -14.8196 -4.6072 -42.4534 -20.8957 1.9376 41.2376 -9.5732 0.0000 15.2608 -0.5806 6.9521 4.7857 33.1476 -0.0000 -26.2537 6.5410 -0.5029 -2.9346 1.3519 -0.0000 -0.0000 -9.5363 18.7624 -6.1431 11.6635 -0.0000 -0.0000 7.1669 4.4032 1.1127 3.0394 -0.0000 -0.0000 -11.8850 -22.1881 12.8841 17.0921 -0.0000 -0.0000
-4.1754 32.3975 0.0788 -2.6718 -1.7195 -0.7577 2.9597 -4.8104 0.6663 -1.2704 8.5592 -2.6585 0.1603 23.8587 43.3659 -26.2281 1.9325 -40.3981 -6.6873 0.0000 20.0785 -1.6642 -14.3574 -6.6829 32.8623 0.0000 24.3270 -14.8419 -4.5720 -42.4464 -20.8324 1.9534 41.2314 -9.5918 0.0000 15.2664 -0.5842 6.9724 4.8016 33.1476 -0.0000 -26.2537 6.5439 -0.4943 -2.9298 1.3608 -0.0000 -0.0000 -9.5498 18.7486 -6.1268 11.6314 -0.0000 -0.0000 7.1755 4.3804 1.1173 3.0403 -0.0000 -0.0000 -11.8944 -22.1811 12.9056 17.0909 -0.0000 -0.0000
-4.1768 32.3974 0.0823 -2.6821 -1.7232 -0.7551 2.9702 -4.8191 0.6547 -1.2591 8.5802 -2.6517 0.1692 23.8755 43.3691 -26.2468 1.9535 -40.4103 -6.6879 0.0000 20.0955 -1.6537 -14.3903 -6.6261 32.8623 0.0000 24.3270 -14.8154 -4.5860 -42.4307 -20.8550 1.9843 41.2280 -9.6034 0.0000 15.2460 -0.5829 6.9413 4.8118 33.1476 -0.0000 -26.2537 6.5618 -0.4906 -2.9307 1.3617 -0.0000 -0.0000 -9.5436 18.7541 -6.1694 11.5880 -0.0000 -0.0000 7.1863 4.3881 1.1149 3.0537 -0.0000 -0.0000 -11.9045 -22.1715 12.9012 17.0939 -0.0000 -0.0000
-4.1774 32.3969 0.0852 -2.6754 -1.7246 -0.7504 2.9625 -4.8147 0.6439 -1.2521 8.5689 -2.6381 0.1535 23.8528 43.3749 -26.2165 1.9644 -40.4139 -6.7324 -0.0000 20.0757 -1.6079 -14.2110 -6.5232 32.8623 0.0000 24.3270 -14.8255 -4.5889 -42.4154 -20.7240 2.1987 41.2304 -9.7473 0.0000 15.0414 -0.5870 7.0215 4.7909 33.1476 -0.0000 -26.2537 6.5596 -0.4874 -2.9323 1.3662 -0.0000 -0.0000 -9.5510 18.7382 -6.1513 11.5561 -0.0000 -0.0000 7.1903 4.3897 1.1132 3.0436 -0.0000 -0.0000 -11.9265 -22.1770 12.8660 17.1283 -0.0000 -0.0000
-4.1779 32.3968 0.0878 -2.6747 -1.7226 -0.7455 2.9619 -4.8197 0.6381 -1.2348 8.5575 -2.6458 0.1603 23.8590 43.3594 -26.2095 1.9362 -40.4127 -6.7078 0.0000 20.0462 -1.5952 -14.2208 -6.4678 32.8623 0.0000 24.3270 -14.8344 -4.5612 -42.4157 -20.6840 2.2070 41.2234 -9.7452 0.0000 15.0181 -0.5844 7.0125 4.7760 33.1476 -0.0000 -26.2537 6.5571 -0.4985 -2.9380 1.3776 -0.0000 -0.0000 -9.5560 18.7536 -6.1403 11.5356 -0.0000 -0.0000 7.1938 4.3969 1.1089 3.0457 -0.0000 -0.0000 -11.9326 -22.1883 12.8748 17.1262 -0.0000 -0.0000
-4.1799 32.3964 0.0904 -2.6769 -1.7274 -0.7462 2.9663 -4.8239 0.6315 -1.2285 8.5522 -2.6335 0.1870 23.9000 43.3448 -26.2422 1.9091 -40.4138 -6.6894 0.0000 20.0297 -1.6018 -14.2678 -6.4734 32.8623 0.0000 24.3270 -14.7781 -4.6295 -42.4194 -20.7754 2.2362 41.2504 -9.7452 -0.0000 15.0086 -0.5857 6.9733 4.8131 33.1476 -0.0000 -26.2537 6.5681 -0.4875 -2.9346 1.3689 -0.0000 -0.0000 -9.5596 18.7595 -6.1550 11.6023 -0.0000 -0.0000 7.1916 4.3928 1.1144 3.0671 -0.0000 -0.0000 -11.9086 -22.1127 12.7445 16.8197 -0.0000 -0.0000
-4.1805 32.3964 0.0931 -2.6735 -1.7364 -0.7492 2.9658 -4.8205 0.6416 -1.2058 8.4635 -2.6105 0.1929 23.9224 43.3292 -26.2662 1.9014 -40.4298 -6.6810 0.0000 19.9912 -1.5866 -14.2526 -6.4193 32.8623 0.0000 24.3270 -14.7562 -4.6630 -42.4393 -20.8322 2.2490 41.2686 -9.7549 -0.0000 15.0374 -0.5913 7.0148 4.8307 33.1476 -0.0000 -26.2537 6.5678 -0.5123 -2.9298 1.3753 -0.0000 -0.0000 -9.5734 18.7770 -6.1578 11.5860 -0.0000 -0.0000 7.1905 4.4004 1.1144 3.0640 -0.0000 -0.0000 -11.9357 -22.1682 12.8750 17.0818 -0.0000 -0.0000
-4.1820 32.3961 0.0953 -2.6703 -1.7367 -0.7476 2.9608 -4.8157 0.6272 -1.2017 8.5085 -2.6196 0.2494 23.9575 43.3169 -26.3204 1.8975 -40.4339 -6.6734 0.0000 19.9621 -1.5976 -14.2942 -6.4451 32.8623 0.0000 24.3270 -14.7568 -4.6522 -42.4250 -20.8181 2.2455 41.2552 -9.7478 0.0000 15.0016 -0.5917 7.0127 4.8349 33.1476 -0.0000 -26.2537 6.5719 -0.5138 -2.9292 1.3662 -0.0000 -0.0000 -9.5726 18.7845 -6.1624 11.6049 -0.0000 -0.0000 7.1890 4.4130 1.1161 3.0682 -0.0000 -0.0000 -11.9441 -22.1904 12.9035 17.0831 -0.0000 -0.0000
-4.1852 32.3961 0.0992 -2.6821 -1.7311 -0.7486 2.9732 -4.8197 0.6127 -1.2002 8.5089 -2.6080 0.2657 23.9835 43.3161 -26.3519 1.8759 -40.4357 -6.6716 0.0000 20.0283 -1.6196 -14.2715 -6.5432 32.8623 0.0000 24.3270 -14.7452 -4.6769 -42.4149 -20.8396 2.2724 41.2608 -9.7645 -0.0000 15.0036 -0.5914 7.0265 4.8229 33.1476 -0.0000 -26.2537 6.5852 -0.5034 -2.9217 1.3785 -0.0000 -0.0000 -9.5761 18.7669 -6.1454 11.5536 -0.0000 -0.0000 7.2086 4.3576 1.1226 3.0708 -0.0000 -0.0000 -11.9472 -22.1327 12.8782 17.0961 -0.0000 -0.0000
-4.1846 32.3958 0.1005 -2.6737 -1.7366 -0.7416 2.9613 -4.8150 0.6132 -1.1704 8.4654 -2.6217 0.2860 23.9834 43.2908 -26.3542 1.8627 -40.4309 -6.6638 0.0000 20.0127 -1.6174 -14.2790 -6.5308 32.8623 0.0000 24.3270 -14.7789 -4.6129 -42.4320 -20.8436 2.1408 41.2442 -9.6685 0.0000 15.0969 -0.5818 6.9721 4.7817 33.1476 -0.0000 -26.2537 6.5751 -0.5122 -2.9319 1.3849 -0.0000 -0.0000 -9.5840 18.7871 -6.1505 11.6038 -0.0000 -0.0000 7.2029 4.3952 1.1147 3.0667 -0.0000 -0.0000 -11.9503 -22.1742 12.8810 17.0630 -0.0000 -0.0000
-4.1861 32.3958 0.1030 -2.6740 -1.7344 -0.7407 2.9620 -4.7982 0.6084 -1.1607 8.4286 -2.6081 0.2681 23.9519 43.2849 -26.2970 1.8179 -40.4236 -6.6778 0.0000 19.9797 -1.6271 -14.2649 -6.5759 32.8623 0.0000 24.3270 -14.7822 -4.6288 -42.4376 -20.8671 2.1236 41.2427 -9.6620 0.0000 15.1403 -0.5816 6.9688 4.7826 33.1476 -0.0000 -26.2537 6.5770 -0.5351 -2.9301 1.3914 -0.0000 -0.0000 -9.5856 18.8049 -6.1683 11.5949 -0.0000 -0.0000 7.2077 4.3973 1.1161 3.0685 -0.0000 -0.0000 -11.9607 -22.1695 12.8618 17.0709 -0.0000 -0.0000
-4.1889 32.3961 0.1060 -2.6776 -1.7288 -0.7463 2.9658 -4.8051 0.6097 -1.1418 8.3821 -2.5984 0.2896 23.9558 43.2671 -26.3168 1.8403 -40.4148 -6.7110 0.0000 19.9802 -1.6384 -14.2507 -6.6279 32.8623 0.0000 24.3270 -14.7865 -4.6194 -42.4301 -20.8668 2.1376 41.2353 -9.6907 0.0000 15.1523 -0.5764 7.0212 4.7053 33.1476 -0.0000 -26.2537 6.5825 -0.5287 -2.9176 1.3975 -0.0000 -0.0000 -9.5935 18.7910 -6.1563 11.5589 -0.0000 -0.0000 7.2160 4.3533 1.1252 3.0697 -0.0000 -0.0000 -11.9470 -22.1217 12.8640 17.0436 -0.0000 -0.0000
-4.1899 32.3960 0.1080 -2.6786 -1.7341 -0.7448 2.9668 -4.7887 0.6041 -1.1323 8.3571 -2.5913 0.2792 23.9379 43.2622 -26.2975 1.8153 -40.4170 -6.7318 0.0000 19.9440 -1.6280 -14.1624 -6.6261 32.8623 0.0000 24.3270 -14.7828 -4.6357 -42.4232 -20.9107 2.1292 41.2244 -9.6985 -0.0000 15.2052 -0.5714 7.0410 4.6517 33.1476 -0.0000 -26.2537 6.5889 -0.5176 -2.9173 1.3954 -0.0000 -0.0000 -9.5968 18.7808 -6.1777 11.5642 -0.0000 -0.0000 7.2185 4.3601 1.1252 3.0756 -0.0000 -0.0000 -11.9581 -22.1306 12.9003 17.0901 -0.0000 -0.0000
-4.1919 32.3955 0.1104 -2.6809 -1.7317 -0.7487 2.9668 -4.7990 0.6049 -1.1153 8.3311 -2.5874 0.2569 23.9255 43.2690 -26.2690 1.8054 -40.4232 -6.7368 -0.0000 19.9361 -1.6318 -14.1693 -6.6380 32.8623 0.0000 24.3270 -14.7566 -4.6451 -42.4313 -20.9939 2.0920 41.2299 -9.7054 0.0000 15.3222 -0.5753 7.0718 4.6628 33.1476 -0.0000 -26.2537 6.5880 -0.4919 -2.9111 1.4103 -0.0000 -0.0000 -9.6070 18.7675 -6.1705 11.6007 -0.0000 -0.0000 7.2259 4.3440 1.1336 3.0706 -0.0000 -0.0000 -11.9521 -22.1203 12.8760 17.0296 -0.0000 -0.0000
-4.1927 32.3952 0.1124 -2.6824 -1.7318 -0.7443 2.9676 -4.7924 0.5922 -1.1087 8.3251 -2.5721 0.2724 23.9323 43.2799 -26.3211 1.8547 -40.4467 -6.7462 0.0000 19.9899 -1.6306 -14.2605 -6.5922 32.8623 0.0000 24.3270 -14.7625 -4.6414 -42.4373 -20.9366 2.1332 41.2383 -9.7124 0.0000 15.3128 -0.5883 7.1717 4.7022 33.1476 -0.0000 -26.2537 6.5927 -0.5234 -2.9147 1.4139 -0.0000 -0.0000 -9.6130 18.7866 -6.1717 11.5169 -0.0000 -0.0000 7.2291 4.3356 1.1304 3.0777 -0.0000 -0.0000 -11.9678 -22.1047 12.8609 17.0483 -0.0000 -0.0000
